<svg width="30" height="30" viewBox="0 0 30 30" fill="none" xmlns="http://www.w3.org/2000/svg">
<path d="M19.815 11.2262H14.08V0H19.815C22.91 0 25.4275 2.5175 25.4275 5.6125C25.4275 8.7075 22.91 11.2262 19.815 11.2262ZM15.9188 9.3875H19.815C21.8963 9.3875 23.5888 7.69375 23.5888 5.61375C23.5888 3.53375 21.895 1.84 19.815 1.84H15.9188V9.3875ZM15.9188 11.2262H10.185C7.09004 11.2262 4.57254 8.70875 4.57254 5.61375C4.57254 2.51875 7.09004 0 10.185 0H15.92V11.2262H15.9188ZM10.185 1.83875C8.10379 1.83875 6.41129 3.5325 6.41129 5.6125C6.41129 7.6925 8.10379 9.3875 10.185 9.3875H14.0813V1.83875H10.185ZM15.9188 20.6125H10.185C7.09004 20.6125 4.57254 18.095 4.57254 15C4.57254 11.905 7.09004 9.3875 10.185 9.3875H15.92V20.6125H15.9188ZM10.185 11.2262C8.10379 11.2262 6.41129 12.92 6.41129 15C6.41129 17.08 8.10504 18.7738 10.185 18.7738H14.0813V11.2262H10.185ZM10.215 30C7.10379 30 4.57129 27.4825 4.57129 24.3875C4.57129 21.2925 7.08879 18.775 10.1838 18.775H15.9188V24.3263C15.9188 27.455 13.36 30 10.215 30ZM10.185 20.6125C9.18458 20.6138 8.22548 21.0118 7.51806 21.7193C6.81063 22.4267 6.41261 23.3858 6.41129 24.3863C6.41129 26.4675 8.11754 28.16 10.2163 28.16C12.3475 28.16 14.0825 26.44 14.0825 24.325V20.6125H10.185ZM19.815 20.6125H19.6925C16.5975 20.6125 14.08 18.095 14.08 15C14.08 11.905 16.5975 9.3875 19.6925 9.3875H19.815C22.91 9.3875 25.4275 11.905 25.4275 15C25.4275 18.095 22.91 20.6125 19.815 20.6125ZM19.6938 11.2262C17.6125 11.2262 15.92 12.92 15.92 15C15.92 17.08 17.6138 18.7738 19.6938 18.7738H19.8163C21.8975 18.7738 23.59 17.08 23.59 15C23.59 12.92 21.895 11.2262 19.815 11.2262H19.6938Z" fill="#F24E1E"/>
</svg>
