<svg width="30" height="30" viewBox="0 0 30 30" fill="none" xmlns="http://www.w3.org/2000/svg">
<path d="M8.96495 25.45C7.82245 24.55 6.60245 23.6875 5.76995 22.475C4.01745 20.335 2.66745 17.8575 1.74495 15.2537C1.18745 13.56 0.994954 11.7437 0.277454 10.1162C-0.475046 8.93622 0.406204 7.64371 1.69995 7.26621C2.27495 7.15746 3.28995 6.61371 2.0662 7.00246C0.968704 7.80746 0.862454 6.27121 1.98745 6.17496C2.7562 6.07246 3.03745 5.44371 2.77495 4.87871C1.94995 4.34121 4.77495 3.74996 3.3537 2.94871C1.87495 1.34996 5.42495 1.04371 4.54995 2.85621C4.3412 4.24996 7.02995 2.59996 6.4062 4.20996C7.03995 4.98371 8.7812 4.38496 8.73745 5.47121C9.66245 5.53371 9.9787 6.31121 10.8462 6.37121C11.7462 6.77746 13.3737 7.09621 13.6787 8.10871C12.7875 8.81621 10.7237 6.65246 10.625 8.60621C10.8937 11.4937 10.825 14.4675 11.88 17.2162C12.38 18.8812 13.5925 20.1912 14.685 21.4887C15.7312 22.7587 17.1487 23.6512 18.5937 24.405C19.8612 25.0025 21.2275 25.3987 22.61 25.6475C23.17 25.2187 24.16 23.6262 25.0325 24.2975C25.0737 25.0525 23.2975 25.8762 24.9487 25.7925C25.9187 25.5 26.5912 26.5425 27.39 25.6025C28.125 26.4737 30.4475 25.045 29.9237 26.8275C29.2162 27.2825 28.1837 27.0075 27.475 27.635C26.3062 27.0512 25.375 28.1575 24.0812 28.0175C22.643 28.2661 21.1857 28.3874 19.7262 28.38C17.3362 28.1925 14.895 28.1125 12.6212 27.28C11.3412 26.9087 10.0912 26.1787 8.96495 25.45ZM10.9837 26.325C12.2337 26.865 13.4562 27.435 14.8262 27.6075C17.0012 27.9075 19.2475 28.375 21.43 27.95C20.4425 27.5037 19.42 28.125 18.4362 27.6312C17.2562 27.885 15.99 27.5662 14.79 27.41C13.425 26.8025 11.9525 26.385 10.6762 25.595C9.07995 25.0125 11.5012 26.3425 11.9325 26.4512C12.93 27.0175 10.8362 26.16 10.54 25.925C9.70495 25.4562 9.59745 25.5537 10.4575 26.03C10.6312 26.13 10.8025 26.2375 10.9825 26.3237L10.9837 26.325ZM8.6037 24.6425C9.8162 25.0912 8.5987 23.79 8.0412 23.865C7.7962 23.4387 7.10245 23.1687 7.5912 22.94C6.7112 23.245 6.66995 21.7775 6.2537 21.9862C5.3237 21.6925 5.8912 20.6487 4.7837 20.0112C4.68245 19.3362 3.6812 18.7512 3.3612 17.7337C3.21995 17.2137 2.22995 15.7175 2.8387 17.1087C3.3562 18.4487 4.26745 19.5962 5.0262 20.7425C5.6137 21.8337 6.30995 22.975 7.38245 23.655C7.74495 24.0025 8.09245 24.5337 8.6037 24.6425ZM5.11245 20.8087C5.3337 21.205 5.1537 20.6262 5.11245 20.8087ZM10.055 25.18C10.3237 25.06 9.66745 25.03 10.055 25.18ZM10.7125 25.42C10.645 25.0887 10.4125 25.605 10.7125 25.42ZM11.5375 25.7637C11.9275 25.3887 10.9325 25.5287 11.5375 25.7637ZM12.9462 26.5512C13.185 26.1987 12.1837 26.4175 12.9462 26.5512ZM10.2375 24.66C10.8462 24.2662 9.44995 24.655 10.2375 24.66ZM10.855 24.9675C10.8375 24.76 10.635 25.0612 10.855 24.9675ZM13.9425 26.895C14.4387 27.2075 16.8425 27.5825 15.3362 27.0237C15.0862 27.0762 12.5487 26.3062 13.9412 26.895H13.9425ZM9.0412 23.0775C8.9912 22.8687 8.2712 22.8462 9.0412 23.0775ZM10.4787 23.915C10.8537 23.6525 9.70245 23.715 10.4787 23.915ZM11.6862 24.6562C12.2237 24.4537 10.8162 24.4525 11.6862 24.6562ZM8.4562 22.44C9.0387 22.8875 10.8062 22.4975 9.3487 22.1737C8.6862 21.82 7.18995 21.5787 8.2087 22.3862L8.4562 22.44ZM12.5062 24.9125C12.7475 24.5 11.4875 24.675 12.5062 24.9125ZM11.2762 23.9337C12.7012 24.3375 10.0787 23.0337 10.925 23.7862L11.1125 23.8712L11.2762 23.9337ZM13.7425 25.3587C15.0925 25.3712 12.5237 25.175 13.7425 25.3587ZM7.93745 21.6587C7.88495 21.4087 7.60495 21.6812 7.93745 21.6587ZM16.025 26.64C16.06 26.1862 15.5837 26.9775 16.025 26.64ZM10.2375 23.07C10.1575 22.8312 9.81745 23.06 10.2375 23.07ZM8.06495 21.5025C8.83995 21.4562 7.00495 21.1612 8.06495 21.5025ZM5.48995 19.8375C5.3937 19.4662 4.64745 19.17 5.48995 19.8375ZM12.2487 24.1312C12.1812 24.1662 12.1062 23.9687 12.2487 24.1312ZM16.4562 26.7125C16.4437 26.4662 16.2275 26.8062 16.4562 26.7125ZM11.8762 23.7462C11.9512 23.4275 11.2162 23.65 11.8762 23.7462ZM8.7437 21.7562C9.3187 21.6937 7.8187 21.3675 8.7437 21.7562ZM14.045 25.0525C14.9425 24.6962 13.17 24.8775 14.045 25.0525ZM11.2875 23.1812C12.3212 23.3137 10.0562 22.4775 11.0612 23.1062L11.2875 23.1812ZM14.8825 25.3912C15.8487 24.8137 15.53 26.7437 16.5212 25.5537C17.4987 24.8412 15.6775 26.4375 16.8837 25.6825C17.7537 25.0987 19.0412 25.9575 19.8537 26.2387C20.4387 26.21 21.0075 26.745 21.6075 26.42C22.7612 26.1075 19.35 25.9575 20.245 25.4075C19.1887 25.7137 18.4075 25.04 17.8887 24.3637C16.7037 24.0887 15.3337 23.485 14.7425 22.4362C14.5025 22.0425 15.0925 22.4912 14.535 21.8487C13.8225 21.2137 13.465 20.4925 12.985 19.7212C12.4137 19.4162 12.3475 18.5175 12.2887 19.6912C12.2937 18.95 11.5975 18.4512 11.4287 18.6587C11.4262 17.945 12.1725 18.3025 11.6487 17.775C11.5362 17.035 11.1662 16.2625 11.055 15.4287C10.8825 15.0262 11.03 14.165 10.4637 15.0762C10.2575 16.0387 10.395 13.8925 10.7162 14.6012C11.1375 13.8762 10.5662 13.9637 10.5412 14.0637C10.8162 13.4537 10.7162 12.5887 10.47 12.9187C10.6162 12.2725 10.7012 10.5412 10.2512 10.8487C10.5237 10.1737 10.7687 7.75746 9.5837 8.67871C9.1037 8.68496 8.2737 8.85371 7.87995 9.04871C9.11245 9.72746 7.75495 9.29371 7.25495 9.18621C7.18995 9.81371 6.69245 9.54246 6.07245 9.54871C7.0637 9.67121 5.58995 10.5612 5.0212 10.2162C4.2837 10.5687 5.6587 11.45 5.0362 11.7225C5.1112 12.1325 3.90495 11.5725 3.9987 12.5225C3.28245 12.2212 3.9012 13.6475 4.25995 13.165C5.4787 13.495 5.11745 14.2475 5.14745 14.9612C4.94995 15.3775 4.16745 13.9825 4.97245 14.0475C4.3387 13.0137 4.2712 13.6725 3.74245 14.1537C3.61745 14.1887 5.0912 14.8375 4.16745 15.1575C4.97995 15.2825 5.00245 15.995 5.16745 16.445C5.65495 16.9537 5.55495 15.8825 6.1412 16.495C5.7712 15.95 4.18245 14.96 5.4612 15.2775C5.45495 14.7275 5.22995 14.2862 5.62245 14.2975C6.00995 13.595 5.2162 16.0312 6.0912 15.1375C6.33245 15.0312 6.3912 14.4337 6.8287 15.1937C7.45995 15.8162 7.0562 16.2662 6.16495 15.6975C6.3237 16.2387 7.35745 16.4312 7.1637 17.2787C7.36995 18.0225 7.65745 17.7487 7.9087 17.7062C8.1062 18.4287 8.21745 17.8975 8.22745 17.5525C9.12745 17.7462 8.91745 18.2775 9.19995 18.6525C9.8212 18.9325 8.30995 16.75 9.37745 17.995C10.5 19.0075 9.7987 19.4325 8.78995 19.27C9.42745 19.2187 9.6337 20.1325 10.4312 20.1C11.1587 20.4462 11.65 21.775 10.3975 21.2212C9.96245 20.83 8.42245 20.3462 9.6812 21.0912C10.8425 21.6287 11.7625 21.9512 12.8825 22.625C13.6825 23.1975 14.03 23.8525 14.3325 23.9825C13.66 24.3037 12.3037 23.725 13.3112 23.5475C12.6825 23.4337 11.9762 23.1162 12.5775 23.8975C13.09 24.3262 14.39 24.28 14.6237 24.3287C14.425 24.7637 14.0862 24.7987 14.6312 24.8325C14.0237 25.1575 14.8262 25.2062 14.8825 25.3912ZM13.64 21.8812C13.27 21.4937 13.1737 20.7687 13.5737 21.4C13.7787 21.4825 14.23 22.5837 13.64 21.8812ZM17.6875 24.4525C17.9187 24.4387 17.695 24.6275 17.6875 24.4525ZM13.055 20.9325C13.1887 21.3825 13.0425 20.3475 13.055 20.9325ZM12.6525 20.3912C13.24 20.6462 12.1875 19.4912 12.6525 20.3912ZM7.77745 17.0262C8.0512 16.9512 7.91245 17.4937 7.77745 17.0262ZM11.6575 19.1287C11.855 19.6587 11.825 18.4987 11.6575 19.1287ZM8.91745 17.2225C9.3212 17.5475 8.7237 16.875 8.91745 17.2225ZM11.27 17.9775C10.83 16.99 11.5825 17.4375 11.3675 18.14L11.27 17.9775ZM7.21245 15.2712C7.01495 14.9462 6.68995 13.9962 6.79495 13.7062C6.88995 14.1787 7.79995 15.74 7.2412 14.3537C6.6237 13.1912 7.9787 14.7312 8.1187 15.0212C8.1812 15.3087 7.73745 14.9425 8.0387 15.6187C7.4887 14.8475 7.7137 16.0437 7.21245 15.2712ZM5.9587 14.4075C6.2462 14.9237 6.0087 13.6537 5.9587 14.4075ZM6.5212 14.6012C6.9787 15.3937 6.7912 14.0325 6.5212 14.6012ZM5.1662 13.5512C4.6987 13.0887 4.3612 12.66 5.18745 13.2637C5.5062 13.2762 4.47995 12.2912 5.26245 12.9512C6.08745 13.1012 5.6712 14.3037 5.1662 13.5512ZM5.8787 13.5325C6.14995 13.2637 6.02245 13.7975 5.8787 13.5325ZM6.3162 13.6737C6.8162 13.9962 5.9062 12.9025 6.3162 13.6737ZM5.44495 12.84C4.08745 11.6325 7.1512 13.4725 5.6662 13.065L5.44495 12.84ZM9.33245 15.1C8.74495 14.7475 9.1787 12.62 9.3787 14.075C9.94995 13.89 9.34745 14.825 9.77245 14.8175C9.7062 15.4087 9.51495 15.6212 9.33495 15.1H9.33245ZM10.77 15.95C10.8937 16.3875 10.83 15.3087 10.77 15.95ZM10.52 15.7025C10.5875 15.4275 10.5287 16.025 10.52 15.7025ZM5.71245 12.4437C4.8412 11.24 8.2462 13.66 6.2712 12.7487C6.06495 12.695 5.8162 12.6737 5.71245 12.4437ZM8.48245 13.9125C8.6662 14.08 8.39995 12.9 8.48245 13.9125ZM10.585 15.2612C10.7475 14.6837 10.5975 15.6425 10.585 15.2612ZM5.84495 11.9837C6.3637 11.8737 7.99245 12.895 6.49495 12.2762C6.32995 12.0912 5.97495 12.1762 5.84495 11.9837ZM10.295 14.2025C10.35 13.165 10.605 13.5837 10.2975 14.35L10.295 14.2025ZM6.2312 11.6237C6.44245 11.3137 5.6687 10.2237 6.34245 11.2325C6.63245 11.4637 7.18245 11.62 6.6962 11.7162C7.4587 12.39 6.5087 11.8987 6.2312 11.6237ZM10.075 13.8787C10.2212 12.6987 10.2037 14.57 10.075 13.8787ZM5.78995 10.5337C5.9512 10.465 5.87495 10.7487 5.78995 10.5337ZM6.79245 11.1312C7.26745 11.735 7.04995 10.5887 6.79245 11.1312ZM9.6212 12.705C9.67495 13.0075 9.6187 12.4962 9.6212 12.705ZM9.45745 12.3425C9.82245 12.855 9.06495 11.3725 9.45745 12.3425ZM9.2162 11.705C9.4412 12.21 9.14995 11.305 9.2162 11.705ZM9.6087 11.0675C9.3387 10.5925 9.9487 8.97621 10.0162 9.97996C9.73245 10.7612 9.93495 11.1987 10.1325 10.15C10.4987 9.32496 10.0537 11.7787 9.60745 11.0687L9.6087 11.0675ZM10.0112 8.66371C10.1287 8.51996 10.0362 8.83746 10.0112 8.66371ZM9.33745 21.93C9.35745 22.0175 9.17745 21.7912 9.33745 21.93ZM10.725 22.63C11.4937 22.83 11.49 22.5112 10.7937 22.4175C10.4187 22.0675 9.2362 21.6987 10.2937 22.3737C10.365 22.5512 10.5875 22.5475 10.7237 22.6312L10.725 22.63ZM7.9862 20.8125C8.4112 21.1287 9.5862 21.7112 8.5912 20.9325C8.92745 20.5425 7.9487 20.335 8.2737 20.075C7.4487 19.57 7.6237 19.615 8.2012 19.63C7.2087 19.1875 8.3437 19.22 8.2887 18.9925C7.90745 18.9175 6.3887 18.3175 7.2837 19.0425C6.3762 18.58 7.06745 19.215 6.7937 19.1475C5.86495 18.895 7.6187 19.8537 6.6462 19.6162C7.17745 20.0375 8.0787 20.6962 6.8712 20.0625C6.7112 20.2912 7.7337 20.6375 7.9862 20.8125ZM9.4362 21.6462C11.1987 22.2137 8.57245 20.9512 9.4362 21.6462ZM16.8612 26.1437C16.8862 25.7937 16.62 26.4437 16.8612 26.1437ZM17.625 26.465C18.0312 26.0712 17.6412 27.0937 18.3 26.3687C18.3062 25.85 18.2787 25.5437 17.5425 26.1737C17.34 26.2862 17.25 26.765 17.625 26.465ZM5.50995 18.8562C5.38495 18.365 4.63495 18.3687 5.50995 18.8562ZM6.32495 19.3912C6.02245 18.8887 5.24495 18.9362 6.32495 19.3912ZM10.9625 22.1875C11.415 22.5875 13.04 22.4825 11.5125 22.2375C11.285 21.9 10.0737 21.9825 10.9625 22.1875ZM17.3337 26.1237C18.0312 25.5387 16.6587 26.3837 17.3337 26.1237ZM18.7837 27.1187C18.7875 26.9312 18.4837 27.2012 18.7837 27.1187ZM18.785 26.8562C19.5562 26.0387 18.0375 26.905 18.785 26.8562ZM3.5062 17.1787C2.8487 16.2412 3.09745 15.8187 2.46245 15.0537C2.34245 14.4662 1.37495 13.1375 1.96245 14.5462C2.49995 15.37 2.65995 16.645 3.5062 17.1787ZM18.5437 26.5962C19.9625 25.6787 17.9612 26.1962 18.5437 26.5962ZM19.6262 27.0212C20.3387 26.4112 19.1762 26.8937 19.6262 27.0212ZM5.2687 17.8187C5.47245 17.5162 4.7437 17.78 5.2687 17.8187ZM19.4 26.73C20.0887 26.2862 19.2425 26.355 19.275 26.77L19.4 26.73ZM10.0625 20.8425C10.0375 20.5425 9.6987 20.8675 10.0625 20.8425ZM10.6375 21.1762C10.4562 20.805 10.3575 21.235 10.6375 21.1762ZM20.505 27.0312C21.3862 26.3937 19.97 26.9087 20.32 27.1512L20.505 27.0312ZM20.1675 26.8687C20.885 26.2662 19.4087 27.135 20.1675 26.8687ZM21.8925 28.0162C22.375 27.6937 21.3062 27.9125 21.8925 28.0162ZM5.71245 17.6C6.3587 17.745 8.29495 19.1925 7.15245 17.7C6.56745 17.5275 6.9187 16.0962 6.3212 16.35C6.7212 17.0187 6.6512 17.3037 5.8087 16.8825C4.75245 16.3662 5.2162 17.1375 5.4212 17.35C5.1412 17.415 5.79495 17.595 5.71245 17.6ZM2.76745 15.275C2.88245 14.7962 1.7012 12.6412 2.20995 14.195C2.39245 14.52 2.37245 15.1375 2.76745 15.275ZM8.17245 18.6075C8.1562 18.5675 7.83995 18.3287 8.17245 18.6075ZM8.99245 18.7975C8.99245 18.2912 8.0862 18.5925 8.99245 18.7975ZM16.0937 23.2762C15.9587 22.9287 15.5587 23.2687 16.0937 23.2762ZM16.435 23.525C16.385 23.3312 16.2387 23.5625 16.435 23.525ZM19.25 25.3C19.52 25.1 18.9125 25.275 19.25 25.3ZM4.23745 15.65C5.01245 15.35 3.40745 15.4375 4.23745 15.65ZM15.4675 22.7275C15.4587 22.2262 14.9737 22.8525 15.4675 22.7275ZM3.92995 14.9387C4.4287 14.77 3.4712 14.8262 3.92995 14.9387ZM5.37495 15.6387C5.3662 15.4725 5.22245 15.7012 5.37495 15.6387ZM22.9875 26.4387C23.6275 26.3087 25.085 26.7637 25.32 26.2687C24.545 26.25 22.6325 25.7212 22.5425 26.3937L22.7125 26.4225L22.9875 26.4387ZM5.8337 15.7537C5.84495 15.245 5.43745 15.735 5.8337 15.7537ZM2.03745 13.1187C1.86495 12.15 1.3812 12.9712 2.03745 13.1187ZM2.94245 13.3462C2.9537 13.0337 2.1137 13.0662 2.94245 13.3462ZM3.45995 13.6C3.34245 13.7525 3.30995 13.4787 3.45995 13.6ZM6.7162 15.6875C6.8687 15.5475 6.3537 15.5837 6.7162 15.6875ZM3.1162 13.0275C3.0287 12.2962 2.0662 12.9175 3.1162 13.0275ZM1.2587 11.8225C1.2337 11.485 1.0787 11.95 1.2587 11.8225ZM1.5337 11.6137C1.48995 11.2137 1.2962 11.6637 1.5337 11.6137ZM3.0587 12.525C3.7062 12.2712 1.8837 12 2.9287 12.475L3.0587 12.525ZM23.4762 25.1362C23.8887 24.7575 22.9512 25.0187 23.4762 25.1362ZM25.9437 26.415C26.1087 25.925 25.5262 26.4775 25.9437 26.415ZM3.2162 11.725C3.28495 11.25 2.7037 11.8187 3.2162 11.725ZM1.0462 10.2725C0.929954 9.60372 0.946204 8.42996 2.0612 8.82746C0.572454 9.12246 3.0912 10.6775 2.7737 9.44996C3.3987 9.47996 3.9987 9.07996 3.6687 9.68746C4.90245 9.54996 5.7562 8.48246 6.9487 8.63121C7.8762 8.50871 8.8912 8.41621 9.8912 8.04246C10.7137 7.98246 11.5037 7.09746 11.0537 6.57371C9.9337 6.47871 8.75995 6.61871 7.51995 6.86496C6.14745 7.14996 4.89995 7.69246 3.5137 7.92621C2.1637 8.10746 3.78495 8.42621 3.3987 8.49621C2.6937 8.74121 4.2387 8.90621 3.30745 9.16371C2.73245 9.05371 2.13245 8.85621 2.3787 8.25121C1.08495 8.41746 -0.0525462 8.95496 0.969954 10.2712H1.04495L1.0462 10.2725ZM4.1637 8.68496C4.46745 7.56746 5.7887 9.60371 4.6612 8.83246C4.5262 8.73246 4.30495 8.64996 4.1637 8.68246V8.68496ZM4.22245 8.14246C4.65995 7.81746 4.45495 8.32496 4.22245 8.14246ZM4.7787 8.15246C4.8187 7.63871 6.0512 8.42496 4.98245 8.33746L4.7787 8.15246ZM5.5387 7.84621C5.8162 7.52121 5.6187 8.13371 5.5387 7.84621ZM5.7337 7.71621C6.1962 7.16121 8.35245 7.36246 6.7737 7.66246C6.3512 7.34371 6.0262 7.84996 5.7337 7.71621ZM8.5462 7.28246C9.94495 7.82246 8.47745 5.76496 8.5462 7.28246ZM9.3462 7.27746C9.63745 6.51246 10.4787 6.97121 9.4812 7.12371C9.50245 7.20496 9.4512 7.51871 9.3462 7.27746ZM2.90245 11.3337C3.7737 10.8 1.9762 10.8712 2.90245 11.3337ZM3.5462 11.5137C3.85245 11.1887 2.88245 11.3812 3.5462 11.5137ZM1.6462 10.1637C2.14495 9.78246 1.05745 10.0187 1.6462 10.1637ZM27.3987 26.2762C27.4137 25.8325 27.0187 26.4762 27.3987 26.2762ZM24.7825 24.4887C24.8575 23.9787 24.445 24.535 24.7825 24.4887ZM28.12 26.4487C28.8162 26.4487 30.23 26.2325 28.7137 26.2325C28.4762 26.27 27.3287 26.2625 28.12 26.4487ZM4.11245 11.1987C4.67495 11.1612 4.99495 10.5775 4.0037 10.6112C2.4662 10.4525 5.3587 11.1362 3.8062 10.9412C3.59745 11.0787 4.1012 11.2375 4.11245 11.2V11.1987ZM4.60995 11.4512C4.54995 11.0887 4.43495 11.6437 4.60995 11.4512ZM5.19745 9.87996C5.4437 9.57621 4.85995 9.79871 5.19745 9.87996ZM3.32245 6.74496C4.32995 6.40246 5.7062 6.01871 6.1812 6.91371C5.69745 6.33121 5.9862 5.75871 6.4437 6.60996C7.0887 7.47121 7.41245 6.21871 6.9912 5.92871C7.46995 6.52371 8.01495 6.80371 7.31245 5.96621C8.07495 5.04871 5.7837 6.08746 5.26245 6.07621C5.01245 6.18871 2.67245 6.67246 3.32245 6.74496ZM3.91245 5.61621C4.48745 5.18246 5.89745 5.87371 4.99245 5.18496C4.90495 5.10746 3.00995 5.70746 3.91245 5.61621ZM6.00495 5.70246C6.67745 5.71871 5.7162 4.79996 6.5162 5.21496C6.38495 4.78621 5.5837 4.70621 5.1912 4.53496C4.9712 4.92746 5.64245 5.70746 6.00495 5.70246ZM4.27995 3.80246C4.51245 3.48746 3.87245 3.96246 4.27995 3.80246ZM5.13495 4.00746C6.21745 3.86371 4.85995 3.54121 4.91745 3.99496L5.13495 4.00746ZM3.5387 2.75746C2.7762 1.76246 4.9712 2.92496 4.19745 1.88246C3.54495 1.36371 2.9187 2.46746 3.5387 2.75746ZM13.3187 8.02621C13.6687 7.40621 11.875 7.19121 13.0837 7.80746C13.1962 7.84496 13.1712 8.06996 13.3187 8.02621Z" fill="black"/>
</svg>
