<svg width="30" height="30" viewBox="0 0 30 30" fill="none" xmlns="http://www.w3.org/2000/svg">
<g clip-path="url(#clip0_1138_14)">
<path d="M14.4654 0C14.245 0 14.0781 0.001625 14.0174 0.008375C13.9529 0.015 13.7475 0.034625 13.5629 0.049375C9.30187 0.4335 5.31075 2.73225 2.78288 6.26538C1.37525 8.23 0.475 10.4583 0.135 12.8188C0.01475 13.6425 0 13.8859 0 15.003C0 16.1201 0.015 16.3635 0.135 17.1875C0.95 22.82 4.95888 27.5524 10.3959 29.3056C11.3695 29.6195 12.3959 29.8335 13.563 29.9625C14.0175 30.0125 15.9822 30.0125 16.4367 29.9625C18.4514 29.7396 20.1583 29.2412 21.8414 28.3821C22.0995 28.2501 22.1494 28.215 22.1143 28.1855C22.0908 28.1681 20.9909 26.6933 19.6714 24.9105L17.2726 21.6705L14.2667 17.2226C12.6129 14.7771 11.2521 12.7776 11.2404 12.7776C11.2286 12.7744 11.217 14.751 11.211 17.1639C11.2026 21.3891 11.1994 21.5591 11.1465 21.6589C11.0703 21.8026 11.0115 21.8611 10.8885 21.9256C10.7948 21.9724 10.7125 21.9812 10.2697 21.9812H9.76225L9.6275 21.8963C9.54394 21.8439 9.47605 21.77 9.431 21.6823L9.36938 21.5503L9.376 15.6715L9.38438 9.78975L9.47513 9.67538C9.52213 9.61375 9.62188 9.53475 9.69213 9.49663C9.81238 9.43788 9.85937 9.432 10.3666 9.432C10.965 9.432 11.0646 9.45538 11.22 9.62538C11.2641 9.6725 12.8916 12.1238 14.8387 15.0764C16.8102 18.0649 18.7829 21.0527 20.7568 24.0396L23.132 27.6374L23.252 27.5583C24.3168 26.8663 25.4426 25.881 26.3341 24.8549C28.2315 22.6762 29.4545 20.0199 29.865 17.1874C29.9851 16.3635 29.9997 16.1199 29.9997 15.003C29.9997 13.8859 29.9848 13.6425 29.865 12.8185C29.0498 7.186 25.041 2.45363 19.6041 0.700375C18.6451 0.3895 17.6246 0.175375 16.481 0.046375C16.2698 0.024375 15.1264 0.0005 14.4654 0ZM19.551 9.02125C19.9851 9.02125 20.0612 9.02787 20.1581 9.08C20.299 9.15025 20.4131 9.28525 20.4544 9.42587C20.4776 9.50212 20.4836 11.1325 20.4776 14.8064L20.4693 20.0782L19.5397 18.6532L18.6071 17.2283V13.3958C18.6071 10.9183 18.6187 9.52538 18.6364 9.458C18.6832 9.29388 18.7859 9.16475 18.9267 9.08862C19.0469 9.02687 19.0905 9.02125 19.551 9.02125Z" fill="black"/>
</g>
<defs>
<clipPath id="clip0_1138_14">
<rect width="30" height="30" fill="white"/>
</clipPath>
</defs>
</svg>
