<svg width="30" height="30" viewBox="0 0 30 30" fill="none" xmlns="http://www.w3.org/2000/svg">
<path d="M27.2585 22.856L16.941 0.945609C16.6823 0.397859 16.1423 0.0364835 15.5303 0.00298355C14.9024 -0.0336415 14.3399 0.269234 14.0225 0.784608L2.83253 18.9089C2.48591 19.4736 2.49278 20.1702 2.85228 20.7282L8.32216 29.2015C8.64816 29.7072 9.21303 30 9.80003 30C9.96653 30 10.1338 29.9765 10.2984 29.9279L26.1758 25.2319C26.6622 25.088 27.0598 24.7439 27.2679 24.2877C27.476 23.8316 27.472 23.3092 27.2585 22.856ZM24.9484 23.7959L11.4768 27.7802C11.0653 27.9021 10.6708 27.5461 10.7573 27.131L15.5699 4.08273C15.6599 3.65173 16.2557 3.58323 16.4437 3.98236L25.3547 22.9049C25.5227 23.2619 25.3309 23.6829 24.9484 23.7959Z" fill="#2D3748"/>
</svg>
