<svg width="30" height="30" viewBox="0 0 30 30" fill="none" xmlns="http://www.w3.org/2000/svg">
<g clip-path="url(#clip0_1138_10)">
<path d="M17.8125 0.225L18.9375 0.475L19.85 0.8L20.5875 1.175L21.15 1.575L21.575 2L21.8875 2.425L22.0875 2.8375L22.2125 3.2125L22.2625 3.5375L22.2875 3.7875L22.275 3.95V10.625L22.2125 11.4125L22.05 12.1L21.7875 12.675L21.4625 13.15L21.0875 13.5375L20.675 13.85L20.2375 14.0875L19.8 14.2625L19.3876 14.3875L19.0126 14.475L18.6875 14.525L18.425 14.55H10.9626L10.1 14.6125L9.36255 14.7875L8.73755 15.0625L8.22505 15.4L7.81255 15.8L7.47505 16.2375L7.22505 16.6875L7.03755 17.15L6.91255 17.5875L6.82505 17.9875L6.77505 18.325L6.75005 18.5875V22.4125H3.96255L3.70005 22.375L3.35005 22.2875L2.95005 22.1375L2.51255 21.9125L2.06255 21.5875L1.61255 21.1375L1.17505 20.5625L0.775049 19.825L0.425049 18.9125L0.162549 17.8125L-0.0124512 16.5L-0.0749512 14.9625L4.88237e-05 13.4375L0.200049 12.1375L0.500049 11.05L0.900049 10.1625L1.35005 9.45L1.85005 8.9L2.37505 8.4875L2.90005 8.1875L3.40005 7.9875L3.85005 7.8625L4.25005 7.8L4.55005 7.7875H4.75005L4.82505 7.8H15.0251V6.7625H7.72505L7.71255 3.325L7.68755 2.8625L7.75005 2.4375L7.88755 2.05L8.10005 1.7L8.41255 1.375L8.80005 1.0875L9.27505 0.8375L9.82505 0.6125L10.4625 0.425L11.1875 0.275L11.9875 0.15L12.875 0.075L13.8375 0.025L14.8875 0L16.475 0.0625L17.8125 0.225ZM9.93755 2.7L9.65005 3.1125L9.55005 3.625L9.65005 4.1375L9.93755 4.5625L10.35 4.8375L10.8625 4.95L11.375 4.8375L11.7875 4.5625L12.075 4.1375L12.175 3.625L12.075 3.1125L11.7875 2.7L11.375 2.425L10.8625 2.3125L10.35 2.425L9.93755 2.7ZM26.3 7.6375L26.65 7.7125L27.05 7.8625L27.4875 8.0875L27.9375 8.425L28.3875 8.8625L28.825 9.45L29.225 10.1875L29.575 11.1L29.8375 12.2L30.0125 13.5L30.075 15.0375L30 16.575L29.8 17.875L29.5 18.95L29.1 19.8375L28.65 20.55L28.15 21.1125L27.625 21.525L27.1 21.825L26.6 22.025L26.15 22.1375L25.75 22.2L25.45 22.225L25.25 22.2125H14.975V23.2375H22.275L22.2875 26.6875L22.3125 27.1375L22.25 27.5625L22.1125 27.95L21.9 28.3125L21.5875 28.625L21.2 28.925L20.725 29.175L20.175 29.3875L19.5375 29.575L18.8125 29.7375L18.0125 29.85L17.125 29.9375L16.1625 29.9875L15.1125 30L13.525 29.95L12.1875 29.775L11.0625 29.525L10.15 29.2125L9.41255 28.8375L8.85005 28.425L8.42505 28L8.11255 27.575L7.91255 27.1625L7.78755 26.7875L7.73755 26.475L7.71255 26.225L7.72505 26.0625V19.3875L7.78755 18.5875L7.95005 17.9125L8.21255 17.3375L8.53755 16.8625L8.91255 16.4625L9.32505 16.1625L9.76255 15.9125L10.2 15.7375L10.6125 15.6125L10.9875 15.5375L11.3125 15.4875L11.575 15.4625L11.7375 15.45H19.0375L19.9 15.3875L20.6375 15.2125L21.2625 14.95L21.775 14.6L22.1875 14.2L22.525 13.7625L22.775 13.3125L22.9625 12.8625L23.0875 12.425L23.175 12.025L23.225 11.675L23.25 11.4125V7.5875H25.8625L26.0375 7.6L26.3 7.6375ZM18.2125 25.45L17.925 25.8625L17.8251 26.375L17.925 26.8875L18.2125 27.3L18.625 27.5875L19.1376 27.6875L19.65 27.5875L20.0625 27.3L20.35 26.8875L20.45 26.375L20.35 25.8625L20.0625 25.45L19.65 25.1625L19.1376 25.0625L18.625 25.1625L18.2125 25.45Z" fill="#3776AB"/>
</g>
<defs>
<clipPath id="clip0_1138_10">
<rect width="30" height="30" fill="white"/>
</clipPath>
</defs>
</svg>
