<svg width="30" height="30" viewBox="0 0 30 30" fill="none" xmlns="http://www.w3.org/2000/svg">
<path d="M17.7875 15.005C17.7875 15.746 17.4932 16.4567 16.9693 16.9809C16.4454 17.505 15.7348 17.7996 14.9937 17.8C14.2525 17.8 13.5416 17.5055 13.0174 16.9813C12.4932 16.4572 12.1987 15.7462 12.1987 15.005C12.1987 14.2639 12.4931 13.5532 13.0169 13.029C13.5408 12.5049 14.2514 12.2103 14.9925 12.21C15.7338 12.21 16.4447 12.5044 16.9689 13.0286C17.493 13.5528 17.7875 14.2637 17.7875 15.005ZM21.0975 1.64246C19.415 1.64246 17.2137 2.84246 14.9875 4.91996C12.7625 2.85371 10.56 1.66746 8.87875 1.66746C8.36625 1.66746 7.9 1.78371 7.49625 2.01496C5.7775 3.00621 5.3925 6.09496 6.28 9.97121C2.475 11.1462 0 13.025 0 15.005C0 16.9925 2.4875 18.8762 6.30375 20.0425C5.42375 23.9337 5.81625 27.0275 7.53875 28.0175C7.93875 28.2512 8.40125 28.3612 8.91625 28.3612C10.5975 28.3612 12.8 27.1612 15.0262 25.0812C17.2512 27.1487 19.4538 28.335 21.135 28.335C21.6475 28.335 22.1137 28.2225 22.5175 27.9912C24.235 27.0012 24.6212 23.9125 23.7337 20.035C27.525 18.87 30 16.9875 30 15.005C30 13.0175 27.5125 11.1337 23.6963 9.96496C24.5763 6.07746 24.1837 2.98121 22.4612 1.98996C22.0637 1.75996 21.6025 1.64371 21.0975 1.64246ZM21.0912 3.00496V3.01246C21.3725 3.01246 21.5987 3.06746 21.7887 3.17121C22.6212 3.64871 22.9825 5.46496 22.7012 7.80121C22.6337 8.37621 22.5237 8.98246 22.3887 9.60121C21.1887 9.30621 19.8812 9.07996 18.505 8.93371C17.68 7.80246 16.8238 6.77496 15.9613 5.87496C17.9513 4.02496 19.82 3.00996 21.0925 3.00621L21.0912 3.00496ZM8.87875 3.02996C10.1438 3.02996 12.0213 4.03996 14.0163 5.87996C13.1588 6.77996 12.3037 7.80121 11.4912 8.93246C10.1075 9.07871 8.79875 9.30496 7.6 9.60496C7.46 8.99246 7.35625 8.39996 7.2825 7.82996C6.995 5.49496 7.35 3.67996 8.175 3.19621C8.4125 3.08371 8.675 3.03621 8.87875 3.02996ZM14.9812 6.84246C15.55 7.42746 16.1188 8.08246 16.6813 8.79746C16.1313 8.77246 15.5688 8.75496 15 8.75496C14.425 8.75496 13.8563 8.76746 13.3 8.79746C13.85 8.08246 14.4187 7.42871 14.9812 6.84246ZM15 10.125C15.925 10.125 16.8462 10.1675 17.7525 10.2412C18.26 10.9687 18.755 11.745 19.2313 12.5662C19.6963 13.3662 20.1187 14.1787 20.5037 14.9987C20.1187 15.8175 19.6963 16.6362 19.2375 17.4362C18.7625 18.2612 18.2713 19.0462 17.7625 19.7737C16.8525 19.8525 15.93 19.8962 15 19.8962C14.075 19.8962 13.1538 19.8525 12.2475 19.78C11.74 19.0525 11.245 18.275 10.7687 17.455C10.3037 16.655 9.88125 15.8425 9.49625 15.0225C9.875 14.2012 10.3037 13.3812 10.7625 12.58C11.2375 11.755 11.7287 10.9725 12.2375 10.245C13.1475 10.165 14.07 10.1225 15 10.1225V10.125ZM10.4562 10.4425C10.1562 10.9137 9.85625 11.3962 9.57625 11.8925C9.295 12.38 9.0325 12.87 8.7825 13.36C8.45125 12.54 8.17 11.7225 7.9375 10.9262C8.7375 10.7387 9.58125 10.5712 10.4562 10.4425ZM19.5312 10.4425C20.4 10.5712 21.2375 10.73 22.0388 10.9262C21.8138 11.7162 21.5325 12.5287 21.2138 13.3425C20.9638 12.855 20.7012 12.3637 20.4137 11.875C20.1325 11.385 19.8325 10.9075 19.5325 10.4425H19.5312ZM23.36 11.2862C23.965 11.4737 24.54 11.6825 25.0787 11.9087C27.2437 12.8337 28.6438 14.0437 28.6438 15.0037C28.6375 15.9637 27.2375 17.1787 25.0725 18.0975C24.5475 18.3225 23.9725 18.525 23.3787 18.7137C23.0287 17.5162 22.5713 16.2687 22.0038 14.9887C22.5663 13.7175 23.0162 12.4762 23.36 11.2837V11.2862ZM6.61625 11.2912C6.96375 12.4912 7.4225 13.7375 7.99125 15.0162C7.42875 16.2875 6.97625 17.5287 6.63375 18.7212C6.02875 18.5337 5.45375 18.3237 4.92125 18.0962C2.75625 17.175 1.35625 15.9637 1.35625 15.0037C1.35625 14.0437 2.75625 12.8262 4.92125 11.9087C5.44625 11.6837 6.02125 11.4812 6.61625 11.2912ZM21.2138 16.6412C21.545 17.4625 21.8262 18.2812 22.0587 19.0762C21.2587 19.2725 20.4137 19.4387 19.5387 19.5637C19.8387 19.095 20.1388 18.6112 20.42 18.1162C20.7013 17.6287 20.9625 17.1312 21.2138 16.6412ZM8.7825 16.6662C9.0325 17.1562 9.295 17.645 9.5825 18.135C9.87 18.6225 10.1638 19.1 10.4638 19.5637C9.595 19.4362 8.7575 19.2762 7.95625 19.0812C8.18125 18.2937 8.46375 17.4787 8.78125 16.665L8.7825 16.6662ZM22.4 20.4C22.54 21.0162 22.65 21.61 22.7175 22.1787C23.005 24.5137 22.65 26.3287 21.825 26.8137C21.6412 26.9262 21.4025 26.9737 21.1212 26.9737C19.8562 26.9737 17.9787 25.965 15.9837 24.1237C16.8412 23.2237 17.6963 22.2037 18.5088 21.0737C19.8925 20.9262 21.2013 20.7 22.4 20.4ZM7.6125 20.4125C8.8125 20.705 10.12 20.9312 11.4962 21.0775C12.3212 22.2087 13.1775 23.2362 14.04 24.135C12.0463 25.9887 10.175 27.0037 8.9025 27.0037C8.6275 26.9975 8.395 26.9412 8.21125 26.8387C7.37875 26.3637 7.0175 24.5462 7.29875 22.21C7.36625 21.635 7.4775 21.03 7.6125 20.4125ZM13.3125 21.2125C13.8625 21.2375 14.425 21.255 14.9937 21.255C15.5687 21.255 16.1375 21.2425 16.6937 21.2125C16.1437 21.9275 15.575 22.5812 15.0125 23.1687C14.4438 22.5812 13.875 21.9275 13.3125 21.2125Z" fill="#61DAFB"/>
</svg>
