<svg width="30" height="30" viewBox="0 0 30 30" fill="none" xmlns="http://www.w3.org/2000/svg">
<g clip-path="url(#clip0_1138_18)">
<path d="M27.0975 0.651318C25.8075 -0.498682 24.2475 -0.0361817 22.7063 1.33132C22.4687 1.54411 22.2405 1.76724 22.0225 2.00007C19.3863 4.79632 16.94 9.97507 16.18 13.9301C16.4763 14.5301 16.7075 15.2963 16.86 15.8813C16.9365 16.1723 17.0048 16.4653 17.065 16.7601C17.065 16.7601 17.0413 16.6713 16.945 16.3901L16.8825 16.2076C16.8696 16.1739 16.8559 16.1405 16.8413 16.1076C16.6688 15.7076 16.1938 14.8638 15.9838 14.4963C15.805 15.0251 15.6463 15.5188 15.5138 15.9663C16.1188 17.0713 16.4863 18.9663 16.4863 18.9663C16.4863 18.9663 16.455 18.8426 16.3025 18.4138C16.1688 18.0351 15.4975 16.8588 15.3375 16.5838C15.0663 17.5888 14.9575 18.2663 15.055 18.4313C15.245 18.7513 15.425 19.3038 15.5825 19.9138C15.94 21.2888 16.1888 22.9638 16.1888 22.9638L16.21 23.2438C16.1631 24.3892 16.1864 25.5363 16.28 26.6788C16.3988 28.1113 16.6213 29.3413 16.905 30.0001L17.0988 29.8951C16.6813 28.5976 16.5113 26.8963 16.5863 24.9363C16.6988 21.9388 17.3888 18.3238 18.6625 14.5563C20.8163 8.86882 23.8038 4.30507 26.5375 2.12507C24.0463 4.37507 20.6725 11.6626 19.6625 14.3601C18.5325 17.3801 17.7313 20.2151 17.2488 22.9313C18.0813 20.3851 20.775 19.2913 20.775 19.2913C20.775 19.2913 22.0963 17.6613 23.64 15.3338C22.715 15.5451 21.1963 15.9063 20.6875 16.1201C19.9375 16.4338 19.735 16.5413 19.735 16.5413C19.735 16.5413 22.1663 15.0613 24.2513 14.3913C27.1188 9.87507 30.2438 3.45882 27.0975 0.651318ZM3.88127 1.33007C3.27343 1.33237 2.69115 1.57495 2.26146 2.00488C1.83176 2.43481 1.5895 3.01722 1.58752 3.62507V24.3851C1.5895 24.9927 1.83184 25.5748 2.26161 26.0044C2.69138 26.4339 3.27366 26.6759 3.88127 26.6776H15.6538C15.5655 25.5519 15.5438 24.422 15.5888 23.2938C15.5813 23.2163 15.575 23.1176 15.5688 23.0438C15.4163 22.0446 15.219 21.0528 14.9775 20.0713C14.8263 19.4838 14.6338 18.9488 14.5163 18.7501C14.3713 18.5038 14.3938 18.3626 14.395 18.2101C14.395 18.0601 14.4138 17.9038 14.4413 17.7276C14.5153 17.2872 14.613 16.8512 14.7338 16.4213L15.005 16.3863C14.9838 16.3426 14.9875 16.3051 14.9663 16.2651L14.915 15.7888C15.0647 15.2883 15.2239 14.7907 15.3925 14.2963L15.6425 14.2726C15.6325 14.2526 15.63 14.2251 15.62 14.2063L15.5663 13.8113C16.3538 9.71132 18.8 4.50757 21.5663 1.57257C21.6488 1.48632 21.7325 1.41257 21.8138 1.33007H3.88127Z" fill="#003B57"/>
</g>
<defs>
<clipPath id="clip0_1138_18">
<rect width="30" height="30" fill="white"/>
</clipPath>
</defs>
</svg>
