<svg width="30" height="30" viewBox="0 0 30 30" fill="none" xmlns="http://www.w3.org/2000/svg">
<g clip-path="url(#clip0_1138_24)">
<path d="M15.0012 6C11.0012 6 8.50122 8 7.50122 12C9.00122 10 10.7512 9.25 12.7512 9.75C13.8925 10.035 14.7075 10.8625 15.6112 11.78C17.0825 13.2725 18.7837 15 22.5012 15C26.5012 15 29.0012 13 30.0012 9C28.5012 11 26.7512 11.75 24.7512 11.25C23.61 10.965 22.795 10.1375 21.8912 9.22C20.4212 7.7275 18.72 6 15.0012 6ZM7.50122 15C3.50122 15 1.00122 17 0.0012207 21C1.50122 19 3.25122 18.25 5.25122 18.75C6.39247 19.035 7.20747 19.8625 8.11122 20.78C9.58247 22.2725 11.2837 24 15.0012 24C19.0012 24 21.5012 22 22.5012 18C21.0012 20 19.2512 20.75 17.2512 20.25C16.11 19.965 15.295 19.1375 14.3912 18.22C12.9212 16.7275 11.22 15 7.50122 15Z" fill="#06B6D4"/>
</g>
<defs>
<clipPath id="clip0_1138_24">
<rect width="30" height="30" fill="white"/>
</clipPath>
</defs>
</svg>
